<?xml version="1.0" encoding="UTF-8"?>
<!DOCTYPE svg PUBLIC "-//W3C//DTD SVG 1.1//EN" "http://www.w3.org/Graphics/SVG/1.1/DTD/svg11.dtd">
<!-- Creator: CorelDRAW -->
<svg xmlns="http://www.w3.org/2000/svg" xml:space="preserve" width="1.70666in" height="1.70666in" version="1.1" style="shape-rendering:geometricPrecision; text-rendering:geometricPrecision; image-rendering:optimizeQuality; fill-rule:evenodd; clip-rule:evenodd"
viewBox="0 0 1707 1707"
 xmlns:xlink="http://www.w3.org/1999/xlink">
 <defs>
  <style type="text/css">
   <![CDATA[
    .fil0 {fill:#1AA1FF}
    .fil2 {fill:#333333}
    .fil3 {fill:#E6E6E6}
    .fil1 {fill:#FFA721}
   ]]>
  </style>
 </defs>
 <g id="Layer_x0020_1">
  <metadata id="CorelCorpID_0Corel-Layer"/>
  <g id="_568597232">
   <path class="fil0" d="M467 108c-3,0 -6,-1 -9,-2l-144 -61c-12,-5 -18,-19 -13,-31 5,-12 19,-17 31,-12l144 61c12,5 17,19 12,31 -3,8 -12,14 -21,14z"/>
   <path class="fil0" d="M467 192l-166 0c-13,0 -24,-11 -24,-24 0,-13 11,-23 24,-23l166 0c13,0 23,10 23,23 0,13 -10,24 -23,24z"/>
   <path class="fil0" d="M323 337c-9,0 -18,-6 -22,-15 -5,-11 1,-25 13,-30l144 -61c12,-5 25,0 30,12 5,12 0,26 -12,31l-144 61c-3,1 -6,2 -9,2z"/>
   <path class="fil1" d="M514 658c-35,0 -64,-25 -70,-60 -6,-38 20,-75 59,-81 72,-12 130,-63 173,-151 10,-22 20,-47 28,-72 4,-12 15,-18 27,-16 1,0 3,0 4,0l91 0c7,0 14,4 18,10 5,5 6,13 4,20 -11,41 -27,83 -44,120 -63,131 -159,210 -278,229 -4,1 -8,1 -12,1z"/>
   <path class="fil1" d="M687 277l-98 0c-30,0 -54,-24 -54,-54l0 -109c0,-30 24,-54 54,-54l98 0c13,0 24,10 24,23l0 171c0,13 -11,23 -24,23z"/>
   <path class="fil0" d="M1358 325l-103 0 0 91c0,13 -10,24 -23,24l-277 0c-13,0 -23,-11 -23,-24l0 -91 -197 0c-39,0 -71,-32 -71,-71l0 -171c0,-39 32,-71 71,-71l471 0c123,0 223,100 223,223l0 19c0,39 -32,71 -71,71z"/>
   <path class="fil2" d="M1285 573l-383 0c-13,0 -23,-11 -23,-24l0 -104c0,-29 23,-52 52,-52l325 0c29,0 53,23 53,52l0 104c0,13 -11,24 -24,24z"/>
   <path class="fil3" d="M1168 1707l-457 0c-111,0 -202,-91 -202,-201l0 -592c0,-16 6,-31 18,-43l308 -325c12,-13 28,-20 46,-20l425 0c35,0 63,28 63,63l0 917c0,110 -90,201 -201,201z"/>
   <path class="fil2" d="M1176 192l-258 0c-13,0 -24,-11 -24,-24 0,-13 11,-23 24,-23l258 0c13,0 23,10 23,23 0,13 -10,24 -23,24z"/>
   <path class="fil1" d="M1346 1529l-813 0c-13,0 -24,-10 -24,-23l0 -592c0,-13 11,-23 24,-23l813 0c13,0 23,10 23,23l0 592c0,13 -10,23 -23,23z"/>
  </g>
  <path class="fil2" d="M991 1433l-104 0c-30,0 -54,-25 -54,-55l0 -61 -62 0c-30,0 -55,-25 -55,-55l0 -104c0,-30 25,-55 55,-55l62 0 0 -61c0,-31 24,-55 54,-55l104 0c31,0 55,24 55,55l0 61 62 0c30,0 54,25 54,55l0 104c0,30 -24,55 -54,55l-62 0 0 61c0,30 -24,55 -55,55z"/>
  <path class="fil0" d="M991 1400c12,0 22,-10 22,-22l0 -95 95 0c11,0 21,-9 21,-21l0 -104c0,-12 -10,-21 -21,-21l-95 0 0 -95c0,-12 -10,-22 -22,-22l-104 0c-11,0 -21,10 -21,22l0 95 -95 0c-12,0 -21,9 -21,21l0 104c0,12 9,21 21,21l95 0 0 95c0,12 10,22 21,22l104 0z"/>
 </g>
</svg>
