<?xml version="1.0" encoding="utf-8"?>
<!-- Generator: Adobe Illustrator 23.0.3, SVG Export Plug-In . SVG Version: 6.00 Build 0)  -->
<svg version="1.1" id="Layer_1" xmlns="http://www.w3.org/2000/svg" xmlns:xlink="http://www.w3.org/1999/xlink" x="0px" y="0px"
	 viewBox="0 0 534 534" style="enable-background:new 0 0 534 534;" xml:space="preserve">
<style type="text/css">
	.st0{fill:url(#SVGID_1_);}
</style>
<linearGradient id="SVGID_1_" gradientUnits="userSpaceOnUse" x1="15.98" y1="264.944" x2="516.6034" y2="264.944">
	<stop  offset="0" style="stop-color:#804D85"/>
	<stop  offset="1" style="stop-color:#41BDBD"/>
</linearGradient>
<path class="st0" d="M505.4,158c6.2,0,11.2-5,11.2-11.2c0-6.2-5-11.2-11.2-11.2h-94.5V93.5c0-27.5-22.3-49.8-49.9-49.9H127.1
	c-22.9,0-41.4,18.6-41.5,41.5v50.5H27.2c-6.2,0-11.2,5-11.2,11.2c0,6.2,5,11.2,11.2,11.2h58.5v15H27.2C21,173,16,178,16,184.2
	c0,6.2,5,11.2,11.2,11.2h58.5v220.4c-0.2,1.1-0.2,2.3,0,3.4V475c0,6.2,5,11.2,11.2,11.2h264c6.2,0,11.2-5,11.2-11.2v-30.8
	c0.2-1.1,0.2-2.3,0-3.4v-6.9h27.6c6.2,0,11.2-5,11.2-11.2V197c0-0.5,0-1.1-0.1-1.6h94.6c6.2,0,11.2-5,11.2-11.2
	c0-6.2-5-11.2-11.2-11.2H372.1v-15L505.4,158z M388.5,93.5v42.1h-16.4V85.1c0-6.3-1.4-12.5-4.2-18.1C380,70.1,388.5,81,388.5,93.5z
	 M108.1,392.6h241.6v35.5c-2.6-1.9-5.1-3.9-7.4-6.2c-6.9-6.6-16.5-15.5-34.1-15.5s-27.2,9-34.1,15.5c-6,5.7-10,9.4-18.7,9.4
	c-8.8,0-12.7-3.7-18.7-9.4c-6.9-6.6-16.5-15.5-34.1-15.5c-17.7,0-27.2,9-34.1,15.5c-6,5.7-10,9.4-18.7,9.4c-8.8,0-12.7-3.7-18.7-9.4
	c-5.3-5-12.1-11.4-22.8-14.1V392.6z M127.1,66.1h203.5c10.5,0,19,8.5,19,19v285.1H108.1V85.1C108.1,74.6,116.6,66.1,127.1,66.1z
	 M108.1,463.8V432c2.6,1.9,5.1,3.9,7.4,6.2c6.9,6.6,16.5,15.5,34.1,15.5c17.7,0,27.2-9,34.1-15.5c6-5.7,10-9.4,18.7-9.4
	c8.8,0,12.7,3.7,18.7,9.4c6.9,6.6,16.5,15.5,34.1,15.5s27.2-9,34.1-15.5c6-5.7,10-9.4,18.7-9.4c8.8,0,12.7,3.7,18.7,9.4
	c5.3,5,12.1,11.4,22.8,14.1v11.5L108.1,463.8z M388.6,195.4c-0.1,0.5-0.1,1-0.1,1.6v214.5h-16.4v-28.3c0.2-1.1,0.2-2.3,0-3.4V195.4
	H388.6z M284.7,345.4h21.8c15.5,0,28.1-12.6,28.1-28.2V101.4c0-6.2-5-11.2-11.2-11.2c-6.2,0-11.2,5-11.2,11.2v215.8
	c0,3.2-2.5,5.7-5.7,5.8h-21.8c-6.2,0-11.2,5-11.2,11.2C273.5,340.4,278.5,345.4,284.7,345.4z"/>
</svg>
