<?xml version="1.0" encoding="UTF-8" standalone="no"?> <svg xmlns="http://www.w3.org/2000/svg" viewBox="0 0 32 32"><defs><style>.cls-1{fill:#d9e1e2;}.cls-2{fill:#eaeff0;}.cls-3{fill:#009ae0;}.cls-4{fill:#2d4a60;}.cls-5{fill:#7b8c8c;}.cls-6{fill:#fd3730;}</style></defs><title>Laundry</title><g id="Laundry"><path class="cls-1" d="M25,30H7a3,3,0,0,1-3-3V5A3,3,0,0,1,7,2H25a3,3,0,0,1,3,3V27A3,3,0,0,1,25,30Z"/><circle class="cls-2" cx="16" cy="19" r="7"/><path class="cls-3" d="M16,19a6.625,6.625,0,0,0-6.969.607A7,7,0,0,0,23,19c0-.2-.013-.407-.031-.607A6.625,6.625,0,0,1,16,19Z"/><path class="cls-4" d="M16,27a8,8,0,1,1,8-8A8.009,8.009,0,0,1,16,27Zm0-14a6,6,0,1,0,6,6A6.006,6.006,0,0,0,16,13Z"/><path class="cls-5" d="M11,7H8A1,1,0,0,1,8,5h3a1,1,0,0,1,0,2Z"/><circle class="cls-3" cx="21" cy="6" r="1"/><circle class="cls-6" cx="24" cy="6" r="1"/></g></svg>