<?xml version="1.0" encoding="UTF-8"?>
<!DOCTYPE svg PUBLIC "-//W3C//DTD SVG 1.1//EN" "http://www.w3.org/Graphics/SVG/1.1/DTD/svg11.dtd">
<!-- Creator: CorelDRAW -->
<svg xmlns="http://www.w3.org/2000/svg" xml:space="preserve" width="1.70666in" height="1.70666in" version="1.1" style="shape-rendering:geometricPrecision; text-rendering:geometricPrecision; image-rendering:optimizeQuality; fill-rule:evenodd; clip-rule:evenodd"
viewBox="0 0 1707 1707"
 xmlns:xlink="http://www.w3.org/1999/xlink">
 <defs>
  <style type="text/css">
   <![CDATA[
    .fil0 {fill:#000002}
   ]]>
  </style>
 </defs>
 <g id="Layer_x0020_1">
  <metadata id="CorelCorpID_0Corel-Layer"/>
  <g id="_564885184">
   <g>
    <path class="fil0" d="M991 1433l-104 0c-30,0 -54,-25 -54,-55l0 -61 -62 0c-30,0 -55,-25 -55,-55l0 -104c0,-30 25,-55 55,-55l62 0 0 -61c0,-31 24,-55 54,-55l104 0c31,0 55,24 55,55l0 61 62 0c30,0 54,25 54,55l0 104c0,30 -24,55 -54,55l-62 0 0 61c0,30 -24,55 -55,55zm-220 -283c-4,0 -8,4 -8,8l0 104c0,4 4,8 8,8l85 0c13,0 23,10 23,23l0 85c0,5 4,8 8,8l104 0c5,0 8,-3 8,-8l0 -85c0,-13 11,-23 24,-23l85 0c4,0 8,-4 8,-8l0 -104c0,-4 -4,-8 -8,-8l-85 0c-13,0 -24,-10 -24,-23l0 -85c0,-5 -3,-8 -8,-8l-104 0c-4,0 -8,3 -8,8l0 85c0,13 -10,23 -23,23l-85 0z"/>
   </g>
   <g>
    <path class="fil0" d="M1168 1707l-457 0c-111,0 -202,-91 -202,-201l0 -592c0,-16 6,-31 18,-43l308 -325c12,-13 28,-20 46,-20l425 0c35,0 63,28 63,63l0 917c0,110 -90,201 -201,201zm-287 -1134c-5,0 -9,1 -12,5l-308 325c-4,3 -5,7 -5,11l0 592c0,85 69,154 155,154l457 0c85,0 155,-69 155,-154l0 -917c0,-9 -8,-16 -17,-16l-425 0z"/>
   </g>
   <g>
    <path class="fil0" d="M1346 1529l-813 0c-13,0 -24,-10 -24,-23l0 -592c0,-13 11,-23 24,-23l813 0c13,0 23,10 23,23l0 592c0,13 -10,23 -23,23zm-790 -47l767 0 0 -544 -767 0 0 544z"/>
   </g>
   <g>
    <path class="fil0" d="M1285 573l-383 0c-13,0 -23,-11 -23,-24l0 -104c0,-29 23,-52 52,-52l325 0c29,0 53,23 53,52l0 104c0,13 -11,24 -24,24zm-360 -47l337 0 0 -81c0,-3 -3,-5 -6,-5l-325 0c-3,0 -6,2 -6,5l0 81z"/>
   </g>
   <g>
    <path class="fil0" d="M1232 440l-277 0c-13,0 -23,-11 -23,-24l0 -114c0,-13 10,-24 23,-24l277 0c13,0 23,11 23,24l0 114c0,13 -10,24 -23,24zm-254 -47l231 0 0 -68 -231 0 0 68z"/>
   </g>
   <g>
    <path class="fil0" d="M1358 325l-623 0c-39,0 -71,-32 -71,-71l0 -171c0,-39 32,-71 71,-71l471 0c123,0 223,100 223,223l0 19c0,39 -32,71 -71,71zm-623 -267c-13,0 -24,11 -24,25l0 171c0,13 11,24 24,24l623 0c14,0 25,-11 25,-24l0 -19c0,-97 -80,-177 -177,-177l-471 0 0 0z"/>
   </g>
   <g>
    <path class="fil0" d="M687 277l-98 0c-30,0 -54,-24 -54,-54l0 -109c0,-30 24,-54 54,-54l98 0c13,0 24,10 24,23l0 171c0,13 -11,23 -24,23zm-98 -171c-4,0 -8,4 -8,8l0 109c0,4 4,7 8,7l75 0 0 -124 -75 0z"/>
   </g>
   <g>
    <path class="fil0" d="M514 658c-35,0 -64,-25 -70,-60 -6,-38 20,-75 59,-81 72,-12 130,-63 173,-151 10,-22 20,-47 28,-72 4,-12 15,-18 27,-16 1,0 3,0 4,0l91 0c7,0 14,4 18,10 5,5 6,13 4,20 -11,41 -27,83 -44,120 -63,131 -159,210 -278,229 -4,1 -8,1 -12,1zm229 -333c-8,22 -16,42 -25,61 -50,103 -120,163 -207,177 -14,2 -23,15 -21,28 2,13 15,23 28,20 131,-21 205,-122 244,-203 12,-26 23,-54 33,-83l-52 0z"/>
   </g>
   <g>
    <path class="fil0" d="M1176 192l-258 0c-13,0 -24,-11 -24,-24 0,-13 11,-23 24,-23l258 0c13,0 23,10 23,23 0,13 -10,24 -23,24z"/>
   </g>
   <g>
    <path class="fil0" d="M467 108c-3,0 -6,-1 -9,-2l-144 -61c-12,-5 -18,-19 -13,-31 5,-12 19,-17 31,-12l144 61c12,5 17,19 12,31 -3,8 -12,14 -21,14z"/>
   </g>
   <g>
    <path class="fil0" d="M467 192l-166 0c-13,0 -24,-11 -24,-24 0,-13 11,-23 24,-23l166 0c13,0 23,10 23,23 0,13 -10,24 -23,24z"/>
   </g>
   <g>
    <path class="fil0" d="M323 337c-9,0 -18,-6 -22,-15 -5,-11 1,-25 13,-30l144 -61c12,-5 25,0 30,12 5,12 0,26 -12,31l-144 61c-3,1 -6,2 -9,2z"/>
   </g>
  </g>
 </g>
</svg>
