<?xml version="1.0" encoding="UTF-8" standalone="no"?> <svg xmlns="http://www.w3.org/2000/svg" viewBox="0 0 48 48"><g id="Iron"><path d="M45.044,20.578a38.388,38.388,0,0,0-3.1-5.43l.7-.982a2.973,2.973,0,0,0-.307-3.858l1.05-1.475A2.007,2.007,0,0,1,46.17,8.36a1.11,1.11,0,0,1,.125.1,1,1,0,1,0,1.41-1.418,3.368,3.368,0,0,0-.355-.3,4.015,4.015,0,0,0-5.584.925L40.72,9.139a2.985,2.985,0,0,0-3.752.948L35.522,12.1C9.152,13.617,1.751,31.76.085,37.433A2,2,0,0,0,2.013,40H38.139a1.991,1.991,0,0,0,1.991-1.767,7,7,0,0,1,6.141-6.177,1.97,1.97,0,0,0,1.7-2.314A38.143,38.143,0,0,0,45.044,20.578ZM38.6,11.25a1,1,0,0,1,1.385-.242l.82.6A.99.99,0,0,1,41.027,13l-.319.445c-.065-.084-.124-.173-.189-.257a3.144,3.144,0,0,0-2.43-1.178l-.039,0ZM2,38c.162-.55.384-1.228.674-2H38.6a8.963,8.963,0,0,0-.464,2Zm37.606-4H3.513c3.4-7.42,12.358-19.645,34.607-19.993h.014a1.038,1.038,0,0,1,.807.408,36.333,36.333,0,0,1,4.29,7.007A36.082,36.082,0,0,1,46,30.075,9.049,9.049,0,0,0,39.609,34Z"/><path d="M40.46,22.668a33.736,33.736,0,0,0-3.019-5.194,1,1,0,0,0-.862-.423c-9.984.451-18.036,3.556-23.93,9.228A1,1,0,0,0,13.343,28H38.2a2.981,2.981,0,0,0,2.487-1.33,3.029,3.029,0,0,0,.274-2.851C40.8,23.434,40.636,23.052,40.46,22.668ZM28,26V25h3v1Zm11.025-.439A.972.972,0,0,1,38.2,26H33V25a2,2,0,0,0-2-2H28a2,2,0,0,0-2,2v1H16c5.2-4.143,11.957-6.468,20.118-6.923a31.636,31.636,0,0,1,2.526,4.43c.163.356.321.714.471,1.078A1.021,1.021,0,0,1,39.025,25.561Z"/></g></svg>