<?xml version="1.0" encoding="UTF-8" standalone="no"?> <svg xmlns="http://www.w3.org/2000/svg" viewBox="0 0 32 32"><title>Laundry</title><g id="Laundry"><path d="M25,2H7A3,3,0,0,0,4,5V27a3,3,0,0,0,3,3H25a3,3,0,0,0,3-3V5A3,3,0,0,0,25,2Zm1,25a1,1,0,0,1-1,1H7a1,1,0,0,1-1-1V5A1,1,0,0,1,7,4H25a1,1,0,0,1,1,1Z"/><path d="M16,10a8,8,0,1,0,8,8A8.009,8.009,0,0,0,16,10Zm0,2a6.006,6.006,0,0,1,5.9,4.911,5.652,5.652,0,0,1-5.418.21,7.649,7.649,0,0,0-6.365-.27A6.009,6.009,0,0,1,16,12Zm0,12a6.006,6.006,0,0,1-5.9-4.911,5.657,5.657,0,0,1,5.419-.21,7.243,7.243,0,0,0,3.443.838,7.84,7.84,0,0,0,2.924-.587A6.008,6.008,0,0,1,16,24Z"/><path d="M9,8h3a1,1,0,0,0,0-2H9A1,1,0,0,0,9,8Z"/><circle cx="20" cy="7" r="1"/><circle cx="23" cy="7" r="1"/></g></svg>