<?xml version="1.0" encoding="UTF-8" standalone="no"?> <svg xmlns="http://www.w3.org/2000/svg" viewBox="0 0 520 520"><title>Underwear</title><g id="Underwear"><path d="M462.17,383.73,440.69,161.86a3.33,3.33,0,0,0,.4-1.57,3.38,3.38,0,0,0-.76-2.13l-4.09-42.27a3.44,3.44,0,0,0-3.43-3.12H393.06a3.45,3.45,0,1,0,0,6.9h36.62l3.59,37.17H86.72l3.6-37.17H345.9a3.45,3.45,0,1,0,0-6.9H87.19a3.44,3.44,0,0,0-3.43,3.12L57.84,383.73a3.45,3.45,0,0,0,1.93,3.44,167.43,167.43,0,0,0,21.87,8.11,3.53,3.53,0,0,0,1,.15,3.45,3.45,0,0,0,1-6.75,187.27,187.27,0,0,1-18.72-6.75L66.68,364c6.8,2.54,21.38,7.4,42.94,11.57a418.58,418.58,0,0,0,79.3,7.26c14,0,29.1-.64,45.18-2.16l-2.13,11a277.74,277.74,0,0,1-101.49,6.78,3.45,3.45,0,0,0-.8,6.86,287.49,287.49,0,0,0,33.37,2,285.33,285.33,0,0,0,72.77-9.46,3.43,3.43,0,0,0,2.51-2.67l4.2-21.66a138,138,0,0,0,34.93,0l.76,3.9a1.89,1.89,0,0,0,0,.23l3.4,17.53a3.43,3.43,0,0,0,2.51,2.67,287.1,287.1,0,0,0,125.29,4.59c31.2-5.85,50-14.81,50.76-15.19A3.47,3.47,0,0,0,462.17,383.73Zm-9.54-26.85c-12.31,4.74-74,26-168.1,16.74l-.25-1.27c28.05-5.49,42.23-20.39,49.22-32.16A61.84,61.84,0,0,0,342,314.67C349,289.88,331.15,186,327.2,163.74H433.94Zm-385.26,0L86.06,163.74H192.8C188.84,186,171,289.88,178,314.67a61.88,61.88,0,0,0,8.54,25.52c7,11.78,21.17,26.67,49.22,32.16l-.25,1.27C141.57,382.89,79.74,361.64,67.37,356.88Zm173,9.29c-52.7-8.49-55.41-50.48-55.5-52.25a3.51,3.51,0,0,0-.14-.84c-5.84-19.45,7.06-104.54,15.12-149.34H320.2c8.06,44.8,21,129.89,15.12,149.34a3.51,3.51,0,0,0-.14.84c0,.43-2.6,43.73-55.5,52.25a131.59,131.59,0,0,1-39.36,0ZM288,391.64l-2.13-11c15.92,1.5,30.93,2.15,44.94,2.15,65.37,0,109.07-13.92,122.48-18.85l1.74,17.94C442.22,387.41,374,413.57,288,391.64Z"/><path d="M368.9,119.67h1.15a3.45,3.45,0,0,0,0-6.9H368.9a3.45,3.45,0,1,0,0,6.9Z"/><path d="M107.77,394.79l-1.39-.28a3.45,3.45,0,1,0-1.41,6.75l1.42.29a3.39,3.39,0,0,0,.7.07,3.45,3.45,0,0,0,.68-6.83Z"/><path d="M235.16,124a3.44,3.44,0,0,0-3.45,3.45v20.73a3.44,3.44,0,0,0,3.45,3.45h49.68a3.44,3.44,0,0,0,3.45-3.45V127.43a3.44,3.44,0,0,0-3.45-3.45Zm46.23,20.73H238.61V130.88h42.78Z"/></g></svg>