<?xml version="1.0" encoding="UTF-8"?>
<!DOCTYPE svg PUBLIC "-//W3C//DTD SVG 1.1//EN" "http://www.w3.org/Graphics/SVG/1.1/DTD/svg11.dtd">
<!-- Creator: CorelDRAW -->
<svg xmlns="http://www.w3.org/2000/svg" xml:space="preserve" width="512px" height="512px" style="shape-rendering:geometricPrecision; text-rendering:geometricPrecision; image-rendering:optimizeQuality; fill-rule:evenodd; clip-rule:evenodd"
viewBox="0 0 512 512"
 xmlns:xlink="http://www.w3.org/1999/xlink">
 <defs>
  <style type="text/css">
   <![CDATA[
    .fil2 {fill:#F9F9F9}
    .fil0 {fill:#52ABB3}
    .fil1 {fill:#AADDE3}
   ]]>
  </style>
 </defs>
 <g id="Layer_x0020_1">
  <metadata id="CorelCorpID_0Corel-Layer"/>
  <path class="fil0" d="M324.086 430.267c-2.42127,-20.0812 -9.4831,-78.9239 -19.0867,-159.468 -8.58074,-69.4632 8.28782,-142.528 28.4824,-193.799l-44.4816 0 0 99.9995c-0.100394,14.5004 -6.80081,25.0005 -16.1008,25.0005l-16.9997 0c-3.89883,0 -6.99923,-3.1004 -6.99923,-7.00042l0 -118 -70.3561 0c19.9737,50.6635 37.2344,125.287 28.4564,193.9 -10.3359,80.5857 -16.9524,139.383 -19.1717,159.357 13.5012,1.6004 25.1328,7.29687 32.8725,15.5422l28.3997 -188c1.16457,-7.81774 12.6142,-8.06695 13.7989,0l28.3997 188c7.72325,-8.2264 19.3229,-13.917 32.7863,-15.5315zm-93.1904 41.1049c-0.240946,22.8213 -22.5497,40.6265 -50.9943,40.6265 -28.0217,0 -50.8714,-18.3001 -50.9978,-40.8131 -10.3146,-72.3238 -9.24334,-163.281 -4.71143,-243.15 -0.439371,-1.51418 -0.350788,-3.16064 0.271654,-4.66064 5.69175,-96.9322 16.3028,-176.503 17.4367,-184.747l0 -12.6284c0,-14.2997 11.7,-25.9997 25.9997,-25.9997l169.999 0c17.5997,0 31.9997,13.9004 31.9997,31.0005l0.100394 6.89884c15.0319,109.871 31.382,310.578 12.8563,434.731 -1.07008,21.8457 -23.5347,39.3686 -50.9565,39.3686 -28.4458,0 -50.7533,-17.8052 -50.9943,-40.6265l-25.0052 -165.473 -25.004 165.473zm-57.2116 -41.2584c2.06221,-18.6922 8.74491,-78.4254 19.317,-161.014 11.139,-86.5467 -21.6402,-172.61 -29.6682,-192.1l-12.0496 0c-0.431104,3.7571 -0.882286,7.77404 -1.34764,12.0036 6.69215,4.92994 16.2296,16.0713 21.2658,32.497 6.79727,22.3619 6.50908,58.9915 -32.9859,106.826 -4.02639,70.6975 -5.32561,150.102 1.68662,217.172 8.07877,-8.25239 20.0835,-14.015 33.782,-15.3851zm186.993 -353.114l-12.0083 0c-8.02562,19.5142 -40.8096,105.721 -29.6694,192.099 9.84452,82.6514 17.0186,142.428 19.2603,161.008 13.6441,1.34882 25.6702,7.04766 33.8399,15.3922 7.00986,-67.0419 5.69766,-146.409 1.663,-217.085 -39.5694,-47.973 -39.8647,-84.5377 -33.0627,-106.914 5.04923,-16.4682 14.6233,-27.6261 21.319,-32.5359 -0.464175,-4.21537 -0.912995,-8.21932 -1.34174,-11.9646zm-204.775 -39.0249l0 25.0253 199.998 0 0 -31.9997c0,-9.40042 -8.10002,-16.9997 -18.0001,-16.9997l-169.998 -0.00118111c-5.80041,0 -12,4.60041 -12,12l0 11.9752zm-7.86617 68.836c-2.75906,26.693 -5.77561,59.6884 -8.21932,95.8562 21.9131,-32.9517 29.0021,-69.175 8.21932,-95.8562zm224.123 95.9731c-2.45434,-36.2422 -5.48033,-69.3108 -8.24294,-96.0381 -20.8678,26.7095 -13.8248,62.9317 8.24294,96.0381zm-61.6183 246.055c-28.2461,14.6008 -16.0158,49.16 21.3591,49.16 20.4001,0 37.0005,-12.1004 37.0005,-27.0001 0,-22.741 -35.445,-34.1647 -58.3596,-22.1599zm-35.5407 -371.839l-12.0992 0 0 110.999 9.30003 0.00118111c0.900003,-1.09961 2.8004,-4.80001 2.8004,-10.9996l-0.00118111 -100.001zm-95.2302 366.999c-20.3386,0.055512 -36.8682,12.1311 -36.8682,27.0001 0,14.8997 16.6004,27.0001 37.0005,27.0001 20.7001,0 37.0005,-11.8996 37.0005,-27.0001 0,-15.1382 -16.3028,-27.0001 -37.1328,-27.0001zm36.1312 -384.999c-10.8,0 -19.9997,-9.19963 -19.9997,-19.9997 0,-24.5422 35.1911,-26.7698 40.4198,-5.0008l39.1608 0.00118111c5.33742,-22.3383 40.4186,-18.9402 40.4186,4.99962 0,20.2713 -28.7682,28.1446 -38.7639,9.00003l-42.4879 0c-3.46182,6.51144 -10.5555,10.9996 -18.7477,10.9996zm0 -25.9997c-8.56656,0 -7.30868,12 0,12 2.28662,0 6.00002,-1.17638 6.00002,-4.00041 0,-1.24489 0.316536,-2.40828 0.874018,-3.41576 -0.781892,-4.09253 -4.97364,-4.58387 -6.87404,-4.58387zm73.1235 4.58033c1.25788,2.263 0.786617,4.376 0.801971,4.44923 0.872837,4.06419 12.0744,4.34056 12.0744,-3.02954 0,-7.55081 -11.654,-8.05869 -12.8764,-1.41969z"/>
  <path class="fil1" d="M372.099 445.499c7.00986,-67.0419 5.69766,-146.409 1.663,-217.085 -39.5694,-47.973 -39.8647,-84.5377 -33.0627,-106.914 5.04923,-16.4682 14.6233,-27.6261 21.319,-32.5359l-1.34174 -11.9646 -12.0083 0c-8.02562,19.5142 -40.8096,105.721 -29.6694,192.099 9.84452,82.6514 17.0186,142.428 19.2603,161.008 13.6441,1.34882 25.6702,7.04766 33.8399,15.3922z"/>
  <path class="fil2" d="M304.999 270.799c-8.58074,-69.4632 8.28782,-142.528 28.4824,-193.799l-44.4816 0 0 99.9995c-0.100394,14.5004 -6.80081,25.0005 -16.1008,25.0005l-16.9997 0c-3.89883,0 -6.99923,-3.1004 -6.99923,-7.00042l0 -118 -70.3561 0c19.9737,50.6635 37.2344,125.287 28.4564,193.9 -10.3359,80.5857 -16.9524,139.383 -19.1717,159.357 13.5012,1.6004 25.1328,7.29687 32.8725,15.5422l28.3997 -188c1.16457,-7.81774 12.6142,-8.06695 13.7989,0l28.3997 188c7.72325,-8.2264 19.3229,-13.917 32.7863,-15.5315 -2.42127,-20.0812 -9.4831,-78.9239 -19.0867,-159.468z"/>
  <path class="fil1" d="M275 177.001l-0.00118111 -100.001 -12.0992 0 0 110.999 9.30003 0.00118111c0.900003,-1.09961 2.8004,-4.80001 2.8004,-10.9996z"/>
  <path class="fil2" d="M372.158 202.784c-2.45434,-36.2422 -5.48033,-69.3108 -8.24294,-96.0381 -20.8678,26.7095 -13.8248,62.9317 8.24294,96.0381z"/>
  <path class="fil2" d="M368.9 470.999c0,-22.741 -35.445,-34.1647 -58.3596,-22.1599 -28.2461,14.6008 -16.0158,49.16 21.3591,49.16 20.4001,0 37.0005,-12.1004 37.0005,-27.0001z"/>
  <path class="fil2" d="M216.902 470.999c0,-15.1382 -16.3028,-27.0001 -37.1328,-27.0001 -20.3386,0.055512 -36.8682,12.1311 -36.8682,27.0001 0,14.8997 16.6004,27.0001 37.0005,27.0001 20.7001,0 37.0005,-11.8996 37.0005,-27.0001z"/>
  <path class="fil1" d="M173.684 430.114c2.06221,-18.6922 8.74491,-78.4254 19.317,-161.014 11.139,-86.5467 -21.6402,-172.61 -29.6682,-192.1l-12.0496 0 -1.34764 12.0036c6.69215,4.92994 16.2296,16.0713 21.2658,32.497 6.79727,22.3619 6.50908,58.9915 -32.9859,106.826 -4.02639,70.6975 -5.32561,150.102 1.68662,217.172 8.07877,-8.25239 20.0835,-14.015 33.782,-15.3851z"/>
  <path class="fil2" d="M139.816 202.667c21.9131,-32.9517 29.0021,-69.175 8.21932,-95.8562 -2.75906,26.693 -5.77561,59.6884 -8.21932,95.8562z"/>
  <path class="fil2" d="M215.9 58.9998c-10.8,0 -19.9997,-9.19963 -19.9997,-19.9997 0,-24.5422 35.1911,-26.7698 40.4198,-5.0008l39.1608 0.00118111c5.33742,-22.3383 40.4186,-18.9402 40.4186,4.99962 0,20.2713 -28.7682,28.1446 -38.7639,9.00003l-42.4879 0c-3.46182,6.51144 -10.5555,10.9996 -18.7477,10.9996zm-59.999 4.00041l199.998 0 0 -31.9997c0,-9.40042 -8.10002,-16.9997 -18.0001,-16.9997l-169.998 -0.00118111c-5.80041,0 -12,4.60041 -12,12l0 11.9752 0 25.0253z"/>
  <path class="fil1" d="M221.9 40.9997c0,-1.24489 0.316536,-2.40828 0.874018,-3.41576 -0.781892,-4.09253 -4.97364,-4.58387 -6.87404,-4.58387 -8.56656,0 -7.30868,12 0,12 2.28662,0 6.00002,-1.17638 6.00002,-4.00041z"/>
  <path class="fil1" d="M289.826 42.0297c0.872837,4.06419 12.0744,4.34056 12.0744,-3.02954 0,-7.55081 -11.654,-8.05869 -12.8764,-1.41969 1.25788,2.263 0.786617,4.376 0.801971,4.44923z"/>
 </g>
</svg>
