<?xml version="1.0" encoding="UTF-8" standalone="no"?> <svg xmlns="http://www.w3.org/2000/svg" viewBox="0 0 64 64"><g id="Layer_17" data-name="Layer 17"><path d="M60.25,21.81c-3.78-5.2-6.78-9.67-9.59-13.22A109.74,109.74,0,0,0,39.13,4.07L39,4c-.59-.13-1.23-.6-1.85-.5h0c-3.44,2.09-6.68,2.17-9.88.23A.48.48,0,0,0,27,3.71a18.45,18.45,0,0,0-1.93.55l-.06,0A53.52,53.52,0,0,0,13.34,9.4,131,131,0,0,1,3.77,22.79a.51.51,0,0,0,.24.8c4.32,1.29,7.46,3.38,9.34,6.21h0a.4.4,0,0,0,.15.14h0l.13.05h0a.52.52,0,0,0,.42-.08,10.09,10.09,0,0,1,2.57-1.38,36.53,36.53,0,0,1-.27,3.83c-.13,10.68-.33,19.76-.59,27a.49.49,0,0,0,.56.51,93.48,93.48,0,0,1,16-.09,60.7,60.7,0,0,1,16.85.71h0a.49.49,0,0,0,.37-.09h0a.51.51,0,0,0,.2-.36c.45-5.13.17-13-.82-23.35q-.27-4.15-.16-8.52l1.68.63a.51.51,0,0,0,.55-.13,29.33,29.33,0,0,1,9-6.12A.51.51,0,0,0,60.25,21.81ZM37,4.82c.53,6.82-9.2,6.48-9.46.23A9.7,9.7,0,0,0,37,4.82Zm-10.47.06c0,7.33,11.88,8.59,11.47-.16l.47.16c-.06,4.05-2.09,6.22-6.22,6.63C28.6,11.12,26.49,9,25.8,5.1ZM50.54,27.75l-1.69-.63c.11-3.19.37-6.46.77-9.77a.5.5,0,0,0-1-.12c-.41,3.45-.67,6.85-.78,10.17v.09c-.09,3.17-.05,6.26.14,9.28,1,9.95,1.24,17.56.87,22.63a62.75,62.75,0,0,0-16.52-.61,97.45,97.45,0,0,0-15.54,0c.25-7.13.44-16,.57-26.36a38.55,38.55,0,0,0,.28-4.5v-.11a55.56,55.56,0,0,0-2.41-15.39.5.5,0,0,0-1,.28A54.69,54.69,0,0,1,16.63,27.5a10,10,0,0,0-2.73,1.33,17.28,17.28,0,0,0-8.9-6A130,130,0,0,0,14.12,10,60.1,60.1,0,0,1,24.84,5.4c.8,4.29,3.26,6.68,7.31,7.11h.12c4.58-.44,7-2.89,7.15-7.28a106.72,106.72,0,0,1,10.7,4.2c2.48,3.41,5.5,7.61,9,12.48A30.25,30.25,0,0,0,50.54,27.75Z"/><path d="M12.59,15.19a21.72,21.72,0,0,1,1,11.56.5.5,0,0,0,1,.15,22.77,22.77,0,0,0-1-12.09A.5.5,0,0,0,12.59,15.19Z"/><path d="M51.8,25.12a.5.5,0,0,0,.48-.64,37.49,37.49,0,0,1-.94-11.87.5.5,0,0,0-1,0,38.26,38.26,0,0,0,1,12.19A.51.51,0,0,0,51.8,25.12Z"/></g></svg>